Coordinates
version=1
nRows=5
nColumns=40
inDegrees=yes

Units are S.I. units (second, meters, Newtons, ...)
Angles are in degrees.

endheader
time	pelvis_tilt	pelvis_list	pelvis_rotation	pelvis_tx	pelvis_ty	pelvis_tz	hip_flexion_r	hip_adduction_r	hip_rotation_r	knee_angle_r	knee_angle_r_beta	ankle_angle_r	subtalar_angle_r	mtp_angle_r	hip_flexion_l	hip_adduction_l	hip_rotation_l	knee_angle_l	knee_angle_l_beta	ankle_angle_l	subtalar_angle_l	mtp_angle_l	lumbar_extension	lumbar_bending	lumbar_rotation	arm_flex_r	arm_add_r	arm_rot_r	elbow_flex_r	pro_sup_r	wrist_flex_r	wrist_dev_r	arm_flex_l	arm_add_l	arm_rot_l	elbow_flex_l	pro_sup_l	wrist_flex_l	wrist_dev_l
     15.29000000	     -3.35876424	     -4.66875444	      0.12162690	      1.03187743	      0.93121390	      0.43325380	     24.33952624	     -6.79673662	     -7.03033657	     61.77753977	     61.77753977	      6.23710517	     -9.88026243	      0.08126777	     15.78502192	     -5.17169453	     -8.72253385	     24.72249328	     24.72249328	     15.24405436	     -6.80213290	      1.95621795	    -10.85155666	      4.13440521	      1.26880099	      9.71811310	    -13.03840249	     -5.66828559	     31.16232169	     45.52449550	      0.00000000	      0.00000000	      9.87659175	    -13.65535467	     -3.69976521	     47.02246309	     45.89314924	      0.00000000	      0.00000000
     15.30421429	     -3.41784224	     -4.73942607	     -0.09980137	      1.03094934	      0.93183775	      0.43308338	     25.34906008	     -6.63316867	     -7.03101873	     60.61350163	     60.61350163	      6.26784192	     -9.94626781	      0.15901670	     15.14639123	     -5.21323717	     -8.89372631	     24.16635107	     24.16635107	     15.42094150	     -6.68107594	      1.96241510	    -10.82952708	      4.14454084	      0.78866489	      8.36740260	    -13.30636073	     -5.66999159	     30.58181952	     45.54270400	      0.00000000	      0.00000000	     10.34704422	    -14.02377484	     -3.85855381	     47.18376235	     45.91918318	      0.00000000	      0.00000000
     15.31842857	     -3.47142875	     -4.78836421	     -0.32891270	      1.03001182	      0.93241992	      0.43297663	     26.25321820	     -6.46472339	     -7.03415544	     59.22881694	     59.22881694	      6.28283058	     -9.93615243	      0.27700914	     14.51396298	     -5.24069537	     -9.10743933	     23.63673968	     23.63673968	     15.57650798	     -6.56784711	      1.95291481	    -10.85068115	      4.11022802	      0.36883227	      7.00861696	    -13.61035749	     -5.68518343	     30.00749946	     45.56037185	      0.00000000	      0.00000000	     10.81222899	    -14.47242664	     -4.03848081	     47.33380533	     45.94539592	      0.00000000	      0.00000000
     15.33264286	     -3.33660029	     -4.77226643	     -0.64416294	      1.02930178	      0.93339723	      0.43297624	     26.83757451	     -6.22475548	     -6.81873677	     57.54962801	     57.54962801	      6.19166877	     -9.97524670	      0.33994511	     13.42740034	     -5.17683827	     -9.50207304	     22.67538007	     22.67538007	     15.63267493	     -6.32493703	      1.84035076	    -11.10361601	      3.98859477	      0.51908562	      5.47022836	    -14.07815575	     -5.65185502	     29.18402376	     45.59038162	      0.00000000	      0.00000000	     11.68822828	    -14.43794996	     -4.24902050	     47.47668876	     45.98611276	      0.00000000	      0.00000000
     15.34685714	     -3.33378417	     -4.73974265	     -0.93675957	      1.02852657	      0.93404396	      0.43308673	     27.45130778	     -6.03780098	     -6.71709826	     55.59060045	     55.59060045	      5.98573544	     -9.74431849	      0.00510120	     12.56608265	     -5.08920725	     -9.79341503	     21.81204890	     21.81204890	     15.39724940	     -6.28607799	      1.04191276	    -11.19090804	      3.87538201	      0.70721235	      3.87876720	    -14.48766838	     -5.72110756	     28.57826210	     45.63737723	      0.00000000	      0.00000000	     12.79135171	    -14.33637745	     -4.56066221	     46.73258460	     46.05325919	      0.00000000	      0.00000000
